<svg width="42" height="42" viewBox="0 0 42 42" fill="none" xmlns="http://www.w3.org/2000/svg">
<path d="M20.8333 0.166687C9.33333 0.166687 0 9.50002 0 21C0 32.5 9.33333 41.8334 20.8333 41.8334H31.25V37.6667H20.8333C11.7917 37.6667 4.16667 30.0417 4.16667 21C4.16667 11.9584 11.7917 4.33335 20.8333 4.33335C29.875 4.33335 37.5 11.9584 37.5 21V23.9792C37.5 25.625 36.0208 27.25 34.375 27.25C32.7292 27.25 31.25 25.625 31.25 23.9792V21C31.25 15.25 26.5833 10.5834 20.8333 10.5834C15.0833 10.5834 10.4167 15.25 10.4167 21C10.4167 26.75 15.0833 31.4167 20.8333 31.4167C23.7083 31.4167 26.3333 30.25 28.2083 28.3542C29.5625 30.2084 31.8958 31.4167 34.375 31.4167C38.4792 31.4167 41.6667 28.0834 41.6667 23.9792V21C41.6667 9.50002 32.3333 0.166687 20.8333 0.166687ZM20.8333 27.25C17.375 27.25 14.5833 24.4584 14.5833 21C14.5833 17.5417 17.375 14.75 20.8333 14.75C24.2917 14.75 27.0833 17.5417 27.0833 21C27.0833 24.4584 24.2917 27.25 20.8333 27.25Z" fill="black" fill-opacity="0.9"/>
</svg>
