<svg width="28" height="46" viewBox="0 0 28 46" fill="none" xmlns="http://www.w3.org/2000/svg">
<path d="M21.875 0.083313H5.20833C2.33333 0.083313 0 2.41665 0 5.29165V40.7083C0 43.5833 2.33333 45.9166 5.20833 45.9166H21.875C24.75 45.9166 27.0833 43.5833 27.0833 40.7083V5.29165C27.0833 2.41665 24.75 0.083313 21.875 0.083313ZM13.5417 43.8333C11.8125 43.8333 10.4167 42.4375 10.4167 40.7083C10.4167 38.9791 11.8125 37.5833 13.5417 37.5833C15.2708 37.5833 16.6667 38.9791 16.6667 40.7083C16.6667 42.4375 15.2708 43.8333 13.5417 43.8333ZM22.9167 35.5H4.16667V6.33331H22.9167V35.5Z" fill="black"/>
</svg>
