<svg width="445" height="446" viewBox="0 0 445 446" fill="none" xmlns="http://www.w3.org/2000/svg">
<g clip-path="url(#clip0_69_18)">
<path d="M217.077 359.1C203.718 359.1 192.352 363.309 182.93 371.748C173.501 380.187 168.79 390.438 168.79 402.452C168.79 416.055 173.557 426.71 183.076 434.474C192.63 442.23 203.718 446.111 216.436 446.111C229.37 446.111 240.638 442.286 250.283 434.613C259.927 426.961 264.722 416.25 264.722 402.459C264.722 390.438 260.123 380.194 250.917 371.755C241.69 363.309 230.422 359.1 217.077 359.1" fill="#D1D2D2" fill-opacity="0.6"/>
<path d="M353.239 60.3912C341.002 41.7846 323.475 26.8645 301.113 16.1048C278.91 5.39381 253.042 0 224.178 0C193.125 0 165.494 6.48791 142.079 19.3034C118.615 32.112 100.531 48.5583 88.2523 68.2241C75.8897 87.9526 69.6597 107.786 69.6597 127.187C69.6597 137.57 73.9524 147.236 82.4194 155.926C90.9283 164.665 101.521 169.097 113.883 169.097C134.929 169.097 149.354 156.692 156.678 132.434C163.348 112.315 171.564 97.005 181.069 86.8515C190.017 77.2904 204.526 72.4541 224.185 72.4541C241.14 72.4541 254.513 77.2068 265.126 86.9909C275.579 96.6635 280.659 108.204 280.659 122.239C280.723 129.035 279.01 135.73 275.691 141.661C272.163 147.994 267.773 153.805 262.645 158.929C257.21 164.365 248.248 172.567 235.997 183.271C221.725 195.78 210.205 206.77 201.794 215.836C192.9 225.544 185.756 236.72 180.679 248.868C175.376 261.44 172.693 276.409 172.693 293.377C172.693 307.879 176.734 319.106 184.728 326.758C192.637 334.354 202.484 338.207 214.017 338.207C236.066 338.207 249.913 326.158 254.025 303.621C256.157 294.249 257.711 287.698 258.764 283.956C259.718 280.569 261.098 277.098 262.875 273.628C264.596 270.269 267.328 266.443 270.987 262.234C274.813 257.837 280.018 252.645 286.367 246.854C310.123 225.627 326.876 210.247 336.173 201.146C345.762 191.745 354.124 180.491 361.058 167.654C368.138 154.483 371.741 139.02 371.741 121.674C371.727 99.6949 365.497 79.0953 353.197 60.4121" fill="#D1D2D2" fill-opacity="0.6"/>
</g>
<defs>
<clipPath id="clip0_69_18">
<rect width="446" height="446" fill="white"/>
</clipPath>
</defs>
</svg>
