<svg width="50" height="50" viewBox="0 0 50 50" fill="none" xmlns="http://www.w3.org/2000/svg">
<path d="M38.8889 5.55554H16.6667C15.93 5.55554 15.2234 5.8482 14.7025 6.36913C14.1816 6.89007 13.8889 7.59661 13.8889 8.33332H38.8889V41.6667H16.6667V28.0555H13.8889V41.6667C13.8889 42.4034 14.1816 43.1099 14.7025 43.6308C15.2234 44.1518 15.93 44.4444 16.6667 44.4444H38.8889C39.6256 44.4444 40.3322 44.1518 40.8531 43.6308C41.374 43.1099 41.6667 42.4034 41.6667 41.6667V8.33332C41.6667 7.59661 41.374 6.89007 40.8531 6.36913C40.3322 5.8482 39.6256 5.55554 38.8889 5.55554Z" fill="black"/>
<path d="M21.0001 25.6389C20.8547 25.7634 20.7366 25.9166 20.6532 26.0889C20.5699 26.2613 20.523 26.4489 20.5156 26.6402C20.5082 26.8315 20.5405 27.0222 20.6103 27.2005C20.6801 27.3787 20.786 27.5406 20.9214 27.6759C21.0568 27.8113 21.2186 27.9172 21.3969 27.987C21.5751 28.0568 21.7658 28.0891 21.9571 28.0817C22.1484 28.0743 22.3361 28.0274 22.5084 27.9441C22.6807 27.8607 22.8339 27.7426 22.9584 27.5972L31.0001 19.5556L22.9723 11.5139C22.7066 11.2864 22.3648 11.1675 22.0153 11.181C21.6657 11.1945 21.3342 11.3394 21.0868 11.5867C20.8394 11.8341 20.6945 12.1657 20.681 12.5152C20.6675 12.8648 20.7864 13.2065 21.014 13.4722L25.6945 18.0556H5.55564C5.18728 18.0556 4.83401 18.2019 4.57354 18.4624C4.31308 18.7228 4.16675 19.0761 4.16675 19.4445C4.16675 19.8128 4.31308 20.1661 4.57354 20.4265C4.83401 20.687 5.18728 20.8333 5.55564 20.8333H25.6945L21.0001 25.6389Z" fill="black"/>
</svg>
